# xmcd
# 
# Track frame offsets:
#     150
#     23639
#     45355
#     68706
#     90685
#     111903
#     124839
#     146713
#     164540
#     180460
#     206802
#     228177
#     250576
# 
# Disc length: 3707
# 
# Revision: 13
# Processed by: cddbd v1.5.2PL0 Copyright (c) Steve Scherf et al.
# Submitted via: BonkEnc v1.0.5
# 
DISCID=ab0e790d
DTITLE=アンジェラ・アキ - Home
DYEAR=2006
DGENRE=JPop
TTITLE0=Kiss Me Good-Bye
TTITLE1=Love is Over Now
TTITLE2=心の戦士
TTITLE3=MUSIC
TTITLE4=This Love
TTITLE5=お願い
TTITLE6=宇宙
TTITLE7=Rain
TTITLE8=奇跡
TTITLE9=大袈裟に「愛してる」
TTITLE10=ハレルヤ
TTITLE11=HOME
TTITLE12=Your Love Song
EXTD=YEAR: 2006
EXTT0=
EXTT1=
EXTT2=
EXTT3=
EXTT4=
EXTT5=
EXTT6=
EXTT7=
EXTT8=
EXTT9=
EXTT10=
EXTT11=
EXTT12=
PLAYORDER=
